<svg width="57" height="56" viewBox="0 0 57 56" fill="none" xmlns="http://www.w3.org/2000/svg">
<g id="Air Conditioner">
<path id="Vector" d="M43.55 33.25H13.45C11.8727 33.2477 10.3606 32.6201 9.24527 31.5047C8.12993 30.3894 7.50231 28.8773 7.5 27.3V12.25C7.5 11.7859 7.68437 11.3408 8.01256 11.0126C8.34075 10.6844 8.78587 10.5 9.25 10.5H47.75C48.2141 10.5 48.6592 10.6844 48.9874 11.0126C49.3156 11.3408 49.5 11.7859 49.5 12.25V27.3C49.4977 28.8773 48.8701 30.3894 47.7547 31.5047C46.6394 32.6201 45.1273 33.2477 43.55 33.25ZM11 14V27.3C11 27.9498 11.2581 28.5729 11.7176 29.0324C12.1771 29.4919 12.8002 29.75 13.45 29.75H43.55C44.1998 29.75 44.8229 29.4919 45.2824 29.0324C45.7419 28.5729 46 27.9498 46 27.3V14H11Z" fill="#383838"/>
<path id="Vector_2" d="M16.25 26.25C16.25 26.7141 16.4344 27.1592 16.7626 27.4874C17.0908 27.8156 17.5359 28 18 28H39C39.4641 28 39.9092 27.8156 40.2374 27.4874C40.5656 27.1592 40.75 26.7141 40.75 26.25C40.75 25.7859 40.5656 25.3408 40.2374 25.0126C39.9092 24.6844 39.4641 24.5 39 24.5H18C17.5359 24.5 17.0908 24.6844 16.7626 25.0126C16.4344 25.3408 16.25 25.7859 16.25 26.25ZM18 17.5C18 17.0359 17.8156 16.5908 17.4874 16.2626C17.1592 15.9344 16.7141 15.75 16.25 15.75H14.5C14.0359 15.75 13.5908 15.9344 13.2626 16.2626C12.9344 16.5908 12.75 17.0359 12.75 17.5C12.75 17.9641 12.9344 18.4092 13.2626 18.7374C13.5908 19.0656 14.0359 19.25 14.5 19.25H16.25C16.7141 19.25 17.1592 19.0656 17.4874 18.7374C17.8156 18.4092 18 17.9641 18 17.5ZM21.5 19.25H23.25C23.7141 19.25 24.1592 19.0656 24.4874 18.7374C24.8156 18.4092 25 17.9641 25 17.5C25 17.0359 24.8156 16.5908 24.4874 16.2626C24.1592 15.9344 23.7141 15.75 23.25 15.75H21.5C21.0359 15.75 20.5908 15.9344 20.2626 16.2626C19.9344 16.5908 19.75 17.0359 19.75 17.5C19.75 17.9641 19.9344 18.4092 20.2626 18.7374C20.5908 19.0656 21.0359 19.25 21.5 19.25ZM18.9223 38.8203L19.5663 37.534C19.6691 37.3284 19.7304 37.1046 19.7468 36.8753C19.7631 36.6461 19.7342 36.4158 19.6615 36.1977C19.5889 35.9797 19.474 35.778 19.3234 35.6043C19.1729 35.4307 18.9896 35.2883 18.784 35.1855C18.5784 35.0827 18.3546 35.0213 18.1253 35.005C17.8961 34.9886 17.6658 35.0176 17.4477 35.0902C17.2297 35.1629 17.028 35.2778 16.8543 35.4283C16.6807 35.5789 16.5383 35.7622 16.4355 35.9677L15.7915 37.254C15.3045 38.227 15.1362 39.3286 15.3106 40.4025C15.4849 41.4765 15.993 42.4683 16.7628 43.2373C17.0131 43.4866 17.1785 43.8085 17.2354 44.1573C17.2922 44.506 17.2377 44.8638 17.0795 45.1797L16.4355 46.466C16.2278 46.8812 16.1935 47.3618 16.3402 47.8023C16.4869 48.2427 16.8026 48.6068 17.2178 48.8145C17.6329 49.0222 18.1136 49.0565 18.554 48.9098C18.9944 48.7631 19.3586 48.4474 19.5663 48.0322L20.2102 46.746C20.6972 45.773 20.8655 44.6714 20.6912 43.5975C20.5168 42.5235 20.0088 41.5317 19.239 40.7627C18.9886 40.5134 18.8233 40.1915 18.7664 39.8427C18.7095 39.494 18.7641 39.1362 18.9223 38.8203ZM25.9222 38.8203L26.5662 37.534C26.6691 37.3284 26.7304 37.1046 26.7468 36.8753C26.7631 36.6461 26.7342 36.4158 26.6615 36.1977C26.5889 35.9797 26.474 35.778 26.3234 35.6043C26.1729 35.4307 25.9896 35.2883 25.784 35.1855C25.5784 35.0827 25.3546 35.0213 25.1253 35.005C24.8961 34.9886 24.6658 35.0176 24.4477 35.0902C24.2297 35.1629 24.028 35.2778 23.8543 35.4283C23.6807 35.5789 23.5383 35.7622 23.4355 35.9677L22.7915 37.254C22.3045 38.227 22.1362 39.3286 22.3106 40.4025C22.4849 41.4765 22.993 42.4683 23.7627 43.2373C24.0131 43.4866 24.1785 43.8085 24.2354 44.1573C24.2922 44.506 24.2377 44.8638 24.0795 45.1797L23.4355 46.466C23.2278 46.8812 23.1935 47.3618 23.3402 47.8023C23.4869 48.2427 23.8026 48.6068 24.2177 48.8145C24.4233 48.9173 24.6471 48.9787 24.8764 48.995C25.1057 49.0114 25.3359 48.9824 25.554 48.9098C25.9944 48.7631 26.3586 48.4474 26.5662 48.0322L27.2102 46.746C27.6972 45.773 27.8655 44.6714 27.6912 43.5975C27.5168 42.5235 27.0088 41.5317 26.239 40.7627C25.9886 40.5134 25.8233 40.1915 25.7664 39.8427C25.7095 39.494 25.7641 39.1362 25.9222 38.8203ZM32.9222 38.8203L33.5662 37.534C33.7739 37.1188 33.8082 36.6382 33.6615 36.1977C33.5148 35.7573 33.1992 35.3932 32.784 35.1855C32.3688 34.9778 31.8882 34.9435 31.4477 35.0902C31.0073 35.2369 30.6432 35.5526 30.4355 35.9677L29.7915 37.254C29.3045 38.227 29.1362 39.3286 29.3106 40.4025C29.4849 41.4765 29.993 42.4683 30.7627 43.2373C31.0131 43.4866 31.1785 43.8085 31.2354 44.1573C31.2922 44.506 31.2377 44.8638 31.0795 45.1797L30.4355 46.466C30.3327 46.6716 30.2713 46.8954 30.255 47.1247C30.2386 47.3539 30.2676 47.5842 30.3402 47.8023C30.4129 48.0203 30.5278 48.222 30.6783 48.3957C30.8289 48.5693 31.0122 48.7117 31.2177 48.8145C31.6329 49.0222 32.1136 49.0565 32.554 48.9098C32.7721 48.8371 32.9737 48.7222 33.1474 48.5717C33.3211 48.4211 33.4634 48.2378 33.5662 48.0322L34.2102 46.746C34.6972 45.773 34.8655 44.6714 34.6912 43.5975C34.5168 42.5235 34.0088 41.5317 33.239 40.7627C32.9886 40.5134 32.8233 40.1915 32.7664 39.8427C32.7095 39.494 32.7641 39.1362 32.9222 38.8203ZM40.239 40.7627C39.9886 40.5134 39.8233 40.1915 39.7664 39.8427C39.7095 39.494 39.7641 39.1362 39.9222 38.8203L40.5662 37.534C40.6691 37.3284 40.7304 37.1046 40.7468 36.8753C40.7631 36.6461 40.7342 36.4158 40.6615 36.1977C40.5889 35.9797 40.474 35.778 40.3234 35.6043C40.1729 35.4307 39.9896 35.2883 39.784 35.1855C39.5784 35.0827 39.3546 35.0213 39.1253 35.005C38.8961 34.9886 38.6658 35.0176 38.4477 35.0902C38.2297 35.1629 38.028 35.2778 37.8543 35.4283C37.6807 35.5789 37.5383 35.7622 37.4355 35.9677L36.7915 37.254C36.3045 38.227 36.1362 39.3286 36.3106 40.4025C36.4849 41.4765 36.993 42.4683 37.7627 43.2373C38.0131 43.4866 38.1785 43.8085 38.2354 44.1573C38.2922 44.506 38.2377 44.8638 38.0795 45.1797L37.4355 46.466C37.2278 46.8812 37.1935 47.3618 37.3402 47.8023C37.4869 48.2427 37.8026 48.6068 38.2177 48.8145C38.6329 49.0222 39.1136 49.0565 39.554 48.9098C39.9944 48.7631 40.3586 48.4474 40.5662 48.0322L41.2102 46.746C41.6972 45.773 41.8655 44.6714 41.6912 43.5975C41.5168 42.5235 41.0088 41.5317 40.239 40.7627Z" fill="#F46B5B"/>
</g>
</svg>
