<svg width="57" height="56" viewBox="0 0 57 56" fill="none" xmlns="http://www.w3.org/2000/svg">
<g id="Laptop">
<path id="Vector" d="M45.356 8.75H11.644C10.5454 8.75139 9.49213 9.18843 8.71528 9.96528C7.93843 10.7421 7.50139 11.7954 7.5 12.894V35C7.5 35.4641 7.68437 35.9093 8.01256 36.2374C8.34075 36.5656 8.78587 36.75 9.25 36.75H47.75C48.2141 36.75 48.6592 36.5656 48.9874 36.2374C49.3156 35.9093 49.5 35.4641 49.5 35V12.894C49.4986 11.7954 49.0616 10.7421 48.2847 9.96528C47.5079 9.18843 46.4546 8.75139 45.356 8.75ZM46 33.25H11V12.894C11 12.8094 11.0167 12.7257 11.049 12.6476C11.0814 12.5694 11.1288 12.4984 11.1886 12.4386C11.2484 12.3788 11.3194 12.3314 11.3976 12.299C11.4757 12.2667 11.5594 12.25 11.644 12.25H45.356C45.4406 12.25 45.5243 12.2667 45.6024 12.299C45.6806 12.3314 45.7516 12.3788 45.8114 12.4386C45.8712 12.4984 45.9186 12.5694 45.951 12.6476C45.9833 12.7257 46 12.8094 46 12.894V33.25ZM47.75 38.5H9.25C8.78587 38.5 8.34075 38.6844 8.01256 39.0126C7.68437 39.3407 7.5 39.7859 7.5 40.25V41.804C7.50139 43.2476 8.07537 44.6318 9.09601 45.6528C10.1167 46.6737 11.5006 47.2481 12.9443 47.25H44.0557C45.4994 47.2481 46.8833 46.6737 47.904 45.6528C48.9246 44.6318 49.4986 43.2476 49.5 41.804V40.25C49.5 39.7859 49.3156 39.3407 48.9874 39.0126C48.6592 38.6844 48.2141 38.5 47.75 38.5ZM44.0557 43.75H12.9443C12.4625 43.7494 11.998 43.5701 11.6408 43.2469C11.2836 42.9236 11.059 42.4793 11.0105 42H45.9895C45.941 42.4793 45.7164 42.9236 45.3592 43.2469C45.002 43.5701 44.5375 43.7494 44.0557 43.75Z" fill="#383838"/>
<path id="Vector_2" d="M32.7245 22.75H33.75C34.2141 22.75 34.6592 22.5656 34.9874 22.2374C35.3156 21.9092 35.5 21.4641 35.5 21C35.5 20.5359 35.3156 20.0908 34.9874 19.7626C34.6592 19.4344 34.2141 19.25 33.75 19.25H28.5C28.0359 19.25 27.5908 19.4344 27.2626 19.7626C26.9344 20.0908 26.75 20.5359 26.75 21V26.25C26.75 26.7141 26.9344 27.1592 27.2626 27.4874C27.5908 27.8156 28.0359 28 28.5 28C28.9641 28 29.4092 27.8156 29.7374 27.4874C30.0656 27.1592 30.25 26.7141 30.25 26.25V25.2245L32.5127 27.4872C32.8428 27.806 33.2849 27.9824 33.7437 27.9784C34.2025 27.9744 34.6415 27.7904 34.9659 27.4659C35.2904 27.1415 35.4744 26.7025 35.4784 26.2437C35.4824 25.7849 35.306 25.3428 34.9873 25.0128L32.7245 22.75Z" fill="#F46B5B"/>
</g>
</svg>
